<?xml version="1.0" encoding="UTF-8"?>
<!-- Generated by Pixelmator Pro 3.6.14 -->
<svg width="596" height="399" viewBox="0 0 596 399" xmlns="http://www.w3.org/2000/svg">
    <path id="Path-copy" fill="#fdfdfc" stroke="none" d="M 502.437012 1.978027 L 594.554016 2.046021 L 551.492981 95.389038 L 467.44397 278.307983 L 440.18103 337.812988 C 429.047974 362.099976 420.627014 390.169006 390.195007 396.189026 C 374.809021 399.232971 356.47998 398.007996 340.598022 398.008972 L 266.001007 398.005981 L 265.988007 298.85498 L 266.033997 271.979004 C 266.071991 254.065979 266.653015 236.974976 250.312988 225.309021 C 237.950012 216.482971 221.376007 217.661011 206.89801 217.500977 C 198.035004 217.403992 189.199005 217.492981 180.372986 217.491028 L 89.045013 217.5 C 88.315002 277.112976 89.026001 338.245972 89.028015 397.984985 L -0.089996 398.025024 L -0.106995 2.010986 L 89.040009 2.020996 L 89.028015 127.744019 L 210.501007 127.760986 L 210.447998 1.993042 L 268.147003 1.985962 C 278.303009 1.97699 292.609985 1.523987 302.258972 2.618042 C 322.744995 5.207031 341.419983 18.302002 349.007019 37.747986 C 354.320984 51.368042 353.112 65.790039 353.106995 80.098999 L 353.083008 126.063965 L 353.117004 254.616028 L 353.124023 295.953003 C 353.124023 299.958008 352.291016 314.275024 354.171997 316.697998 L 355.453003 316.851013 C 357.780029 314.802002 384.552979 255.747009 387.53302 249.366028 L 502.437012 1.978027 Z"/>
</svg>
